<?xml version="1.0" encoding="utf-8"?>
<!-- Generator: Adobe Illustrator 22.0.1, SVG Export Plug-In . SVG Version: 6.00 Build 0)  -->
<svg version="1.1" id="Layer_1" xmlns="http://www.w3.org/2000/svg" xmlns:xlink="http://www.w3.org/1999/xlink" x="0px" y="0px"
	 viewBox="0 0 53 52" style="enable-background:new 0 0 53 52;" xml:space="preserve">
<style type="text/css">
	.st0{fill:#999999;}
</style>
<g id="Page-1_1_">
	<g id="link">
		<path id="Page-1" class="st0" d="M49.1,17.7l-6.2,6.2c-3.4,3.4-8.6,3.9-12.5,1.6l-4.7,4.7c1,1.6,1.6,3.4,1.6,5.2
			c0,2.9-1,5.5-3.1,7.3L18,48.9c-3.9,3.9-10.7,3.9-14.8,0C-1,44.7-1,38.2,3.1,34.1l6.2-6.2c2.1-2.1,4.7-3.1,7.3-3.1
			c1.8,0,3.6,0.5,5.2,1.6l4.4-4.4c-2.3-3.9-1.8-9.1,1.6-12.5L34,3.3C36.1,1,38.7,0,41.3,0c2.9,0,5.5,1,7.3,3.1
			C53.3,7.3,53.3,13.8,49.1,17.7z M13.3,31.7L7,38c-2.1,2.1-2.1,5.2,0,7.3c1,1,2.3,1.6,3.6,1.6s2.6-0.5,3.6-1.6l6.2-6.2
			c1-1,1.6-2.3,1.6-3.6c0-0.5,0-0.8-0.3-1.3l-2.3,2.3l-3.6-3.6l2.3-2.3C16.4,29.9,14.6,30.4,13.3,31.7z M45.5,6.8
			c-2.1-2.1-5.5-2.1-7.3,0L32,13c-1.3,1.3-1.8,3.4-1.3,4.9l2.3-2.3l3.6,3.6l-2.3,2.3c0.5,0,0.8,0.3,1.3,0.3c1.3,0,2.6-0.5,3.6-1.6
			l6.2-6.2C47.6,12.2,47.6,8.8,45.5,6.8z"/>
	</g>
</g>
</svg>
